<?xml version="1.0" standalone="no"?>
<!DOCTYPE svg PUBLIC "-//W3C//DTD SVG 20010904//EN"
 "http://www.w3.org/TR/2001/REC-SVG-20010904/DTD/svg10.dtd">
<svg version="1.0" xmlns="http://www.w3.org/2000/svg"
 width="1280.000000pt" height="1280.000000pt" viewBox="0 0 1280.000000 1280.000000"
 preserveAspectRatio="xMidYMid meet">

<g transform="translate(0.000000,1280.000000) scale(0.100000,-0.100000)"
fill="#000000" stroke="none">
<path d="M0 6400 l0 -6400 6400 0 6400 0 0 6400 0 6400 -6400 0 -6400 0 0
-6400z m4148 2432 c6 -9 9 -25 6 -36 -24 -79 -316 -628 -410 -771 -61 -94 -82
-110 -119 -93 -49 22 -46 67 20 229 91 224 190 400 310 555 108 138 154 166
193 116z m4721 -91 c103 -74 341 -568 341 -708 0 -64 -57 -93 -109 -57 -35 25
-88 114 -125 212 -48 122 -94 228 -161 365 -48 99 -56 124 -51 152 11 55 56
71 105 36z m-4715 -902 c19 -11 60 -51 91 -89 124 -151 331 -325 602 -504 353
-234 482 -423 347 -507 -49 -30 -139 -28 -231 4 -325 114 -785 574 -894 892
-35 104 -37 162 -8 199 25 31 46 33 93 5z m4619 -36 c17 -29 17 -39 7 -90 -50
-241 -231 -502 -509 -731 -332 -276 -586 -343 -657 -174 -26 60 3 117 117 229
80 77 133 118 303 231 109 73 313 230 396 306 25 22 80 82 123 133 43 50 92
101 110 112 46 30 86 24 110 -16z m-2745 -786 c39 -36 50 -75 62 -228 19 -257
45 -335 122 -380 40 -22 52 -24 183 -23 131 0 144 2 202 29 57 25 65 33 89 82
38 78 42 138 12 183 -17 25 -32 36 -55 38 -37 4 -48 -18 -38 -77 10 -62 -21
-86 -105 -82 -45 2 -108 52 -135 105 -29 58 -31 84 -10 152 31 105 144 202
262 224 249 47 592 -121 676 -333 47 -116 25 -169 -152 -367 -66 -74 -121
-141 -121 -147 0 -24 32 -13 218 76 265 127 356 153 467 137 87 -13 160 -114
141 -192 -11 -42 -61 -80 -134 -99 -139 -37 -307 -145 -562 -361 -174 -146
-312 -234 -371 -234 -42 0 -140 56 -199 113 -72 71 -126 107 -160 107 -33 0
-76 -28 -176 -116 -79 -69 -141 -103 -185 -104 -47 0 -162 68 -298 177 -74 60
-146 117 -160 128 -15 11 -58 45 -97 76 -127 102 -311 209 -361 209 -30 0
-121 47 -132 69 -18 32 -13 96 9 123 81 104 407 68 666 -72 41 -22 76 -40 78
-40 5 0 -19 38 -115 184 -53 80 -85 149 -103 218 -28 111 23 205 178 327 161
126 245 153 304 98z m-1385 -1229 c95 -50 147 -96 147 -130 0 -31 -14 -43 -65
-60 -61 -20 -70 -48 -44 -144 34 -123 34 -138 8 -163 -12 -11 -32 -21 -42 -21
-25 0 -78 55 -140 144 -142 203 -163 363 -54 412 46 20 98 10 190 -38z m3758
25 c60 -35 75 -120 38 -218 -43 -114 -194 -301 -237 -293 -26 5 -43 48 -36 93
8 57 -8 88 -76 153 -77 74 -80 101 -16 160 43 40 115 82 186 108 50 18 107 17
141 -3z m-1962 -678 c85 -43 166 -227 200 -450 42 -283 10 -406 -124 -475 -81
-41 -121 -46 -190 -24 -71 22 -103 62 -135 166 -19 63 -21 88 -17 198 6 135
14 189 53 350 51 206 121 283 213 235z m-831 -362 c67 -50 87 -156 43 -241
-40 -78 -137 -135 -232 -136 -58 0 -73 4 -125 35 -70 41 -129 126 -119 169 23
95 217 205 348 197 38 -2 67 -10 85 -24z m1825 8 c72 -23 161 -77 198 -119 67
-75 23 -173 -106 -240 -196 -100 -437 106 -344 293 41 81 133 106 252 66z
m-1347 -182 c43 -41 16 -105 -69 -161 -57 -38 -98 -37 -132 4 -22 26 -26 39
-22 70 11 80 65 121 150 115 33 -3 55 -11 73 -28z m-1019 -341 c48 -53 53 -92
26 -214 -22 -102 -21 -103 152 -84 132 14 347 46 566 84 333 58 389 58 389 2
0 -32 -41 -55 -204 -116 -278 -102 -396 -129 -596 -137 -184 -6 -269 9 -350
65 -73 50 -113 110 -129 199 -11 56 -11 80 -1 122 21 88 100 130 147 79z
m2776 -38 c44 -35 69 -101 70 -188 2 -103 -19 -146 -91 -189 -142 -84 -357
-91 -674 -19 -173 39 -508 169 -554 214 -71 72 24 80 316 27 408 -74 724 -86
772 -28 7 9 18 51 24 95 6 43 17 85 24 93 18 22 82 19 113 -5z m-1202 -389
c122 -38 145 -123 45 -170 -79 -38 -356 -61 -478 -41 -112 19 -158 79 -108
142 21 28 98 64 163 78 56 12 332 5 378 -9z m-133 -520 c48 -25 65 -44 96
-111 44 -93 34 -266 -20 -371 -51 -102 -117 -159 -164 -144 -44 14 -136 161
-175 280 -59 183 -40 285 64 338 67 33 143 36 199 8z"/>
<path d="M3894 8492 c-45 -70 -139 -270 -131 -278 4 -4 56 86 124 213 56 105
60 146 7 65z"/>
<path d="M8870 8624 c0 -6 18 -47 40 -91 22 -44 65 -141 95 -214 67 -161 93
-217 106 -224 5 -4 9 -3 9 0 0 18 -67 199 -96 260 -62 131 -154 290 -154 269z"/>
<path d="M4114 7730 c14 -73 121 -262 216 -385 81 -104 259 -278 369 -361 157
-118 378 -212 437 -185 85 38 -54 193 -350 390 -249 165 -475 358 -612 523
-46 56 -69 63 -60 18z"/>
<path d="M8661 7718 c-16 -18 -61 -69 -99 -113 -102 -118 -272 -259 -507 -419
-253 -173 -349 -259 -361 -323 -25 -134 236 -58 481 141 277 225 416 402 509
650 39 104 33 123 -23 64z"/>
<path d="M6632 6959 c-96 -19 -190 -99 -207 -176 -9 -43 10 -98 42 -123 33
-25 53 -12 53 35 0 19 3 41 6 50 17 44 148 64 200 30 61 -39 83 -158 50 -268
-33 -113 -126 -181 -269 -197 -253 -29 -365 6 -434 136 -37 70 -52 152 -63
335 -9 161 -17 184 -66 176 -45 -7 -203 -117 -258 -179 -102 -112 -86 -196 83
-443 196 -287 197 -288 165 -319 -18 -19 -17 -20 -163 72 -167 104 -283 153
-426 178 -118 21 -217 19 -246 -5 -37 -30 -16 -50 91 -85 145 -48 264 -128
604 -404 160 -130 212 -162 262 -162 48 0 77 18 174 104 79 71 154 116 192
116 35 0 114 -50 204 -128 45 -39 96 -78 114 -87 30 -16 35 -16 77 0 49 19
175 108 273 195 106 93 322 251 416 304 48 28 119 59 158 71 39 11 77 24 84
28 18 12 15 62 -7 88 -17 21 -27 24 -88 23 -88 -1 -163 -26 -387 -131 -260
-121 -305 -131 -337 -72 -26 49 5 102 155 271 148 167 168 214 127 303 -44 97
-210 213 -361 252 -89 23 -147 26 -218 12z"/>
<path d="M4476 5744 c-29 -28 -19 -78 40 -193 31 -61 61 -114 67 -120 9 -7 11
13 9 81 l-3 90 40 37 c48 44 47 45 -48 91 -70 34 -84 36 -105 14z"/>
<path d="M8255 5728 c-34 -12 -105 -59 -124 -81 -10 -13 -5 -23 34 -59 26 -24
55 -60 66 -80 10 -20 23 -39 29 -43 22 -14 95 120 114 211 12 57 -41 80 -119
52z"/>
<path d="M6368 5053 c-38 -43 -69 -157 -108 -388 -23 -136 -22 -166 7 -286 13
-56 23 -76 50 -100 53 -46 140 -32 204 33 62 64 70 138 40 369 -18 141 -72
285 -131 352 -37 42 -41 44 -62 20z"/>
<path d="M5460 4711 c-78 -18 -185 -79 -195 -111 -18 -55 66 -120 155 -120 63
0 97 17 144 72 82 95 22 187 -104 159z"/>
<path d="M7264 4696 c-14 -11 -19 -26 -18 -58 2 -88 56 -146 148 -155 70 -7
98 0 141 38 26 23 35 39 35 63 0 26 -8 36 -48 63 -26 17 -64 39 -86 47 -48 20
-146 21 -172 2z"/>
<path d="M5966 4531 c-11 -12 -14 -21 -7 -26 14 -8 28 1 41 26 14 26 -10 26
-34 0z"/>
<path d="M5006 4174 c-9 -24 -7 -104 3 -104 11 0 21 35 21 77 0 35 -14 52 -24
27z"/>
<path d="M5595 3929 c-132 -21 -269 -38 -305 -39 -69 0 -108 -13 -74 -24 38
-12 240 -5 309 11 177 39 366 92 325 91 -8 0 -123 -17 -255 -39z"/>
<path d="M7786 4134 c-3 -9 -6 -28 -6 -42 -1 -93 -80 -155 -221 -173 -86 -11
-271 3 -482 37 -118 19 -154 14 -72 -10 33 -9 70 -21 81 -26 39 -16 278 -58
364 -64 169 -13 329 29 371 98 26 43 25 119 -2 162 -24 39 -25 40 -33 18z"/>
<path d="M6266 3755 c-67 -14 -96 -28 -83 -41 24 -25 376 -18 437 9 l35 15
-30 13 c-44 19 -275 21 -359 4z"/>
<path d="M6363 3243 c-36 -7 -73 -59 -73 -101 0 -73 90 -315 135 -361 31 -32
65 11 106 132 33 95 36 162 12 229 -28 78 -51 100 -109 103 -27 2 -59 1 -71
-2z"/>
</g>
</svg>
